<svg width="25" height="25" fill="none" xmlns="http://www.w3.org/2000/svg"><path d="M19.5 10.5V6.7c0-1.12 0-1.68-.218-2.108a2 2 0 0 0-.874-.874C17.98 3.5 17.42 3.5 16.3 3.5H8.7c-1.12 0-1.68 0-2.108.218a2 2 0 0 0-.874.874C5.5 5.02 5.5 5.58 5.5 6.7v3.8m0-1h-3v-1m17 1h3v-1M6.5 14h.01m11.99 0h.01M7.3 10.5h10.4c1.68 0 2.52 0 3.162.327a3 3 0 0 1 1.311 1.311c.327.642.327 1.482.327 3.162v3.2c0 .932 0 1.398-.152 1.765a2 2 0 0 1-1.083 1.083c-.367.152-.833.152-1.765.152h-.6c-.372 0-.557 0-.713-.025a2 2 0 0 1-1.662-1.662c-.025-.156-.025-.341-.025-.713 0-.093 0-.14-.006-.178a.5.5 0 0 0-.416-.416c-.039-.006-.085-.006-.178-.006H9.1c-.093 0-.14 0-.178.006a.5.5 0 0 0-.416.416c-.006.039-.006.085-.006.178 0 .372 0 .557-.025.713a2 2 0 0 1-1.662 1.662c-.156.025-.341.025-.713.025h-.6c-.932 0-1.398 0-1.765-.152a2 2 0 0 1-1.083-1.083C2.5 19.898 2.5 19.432 2.5 18.5v-3.2c0-1.68 0-2.52.327-3.162a3 3 0 0 1 1.311-1.311C4.78 10.5 5.62 10.5 7.3 10.5ZM7 14a.5.5 0 1 1-1 0 .5.5 0 0 1 1 0Zm12 0a.5.5 0 1 1-1 0 .5.5 0 0 1 1 0Z" stroke="#fff" stroke-width="2" stroke-linecap="round" stroke-linejoin="round"/></svg>
