<svg xmlns="http://www.w3.org/2000/svg" width="56" height="57" fill="none"><path d="M37.924 13.108a5.602 5.602 0 0 0-1.8-.276 2.235 2.235 0 0 0-1.456.636l-2.853 2.724a2.311 2.311 0 0 1-1.74.635l-3.6-.228a2.312 2.312 0 0 0-2.092 1.063l-2.295 3.593a2.31 2.31 0 0 0 .018 2.515l1.789 2.717a2.31 2.31 0 0 1 .242 2.057l-.576 1.593a2.307 2.307 0 0 0 .121 1.851c.29.558.627 1.091 1.007 1.593a2.306 2.306 0 0 0 3.771-.175l10.753-16.838a2.316 2.316 0 0 0-1.289-3.46Z" fill="#F15D0A"/><path d="M32.557 27.2c-.105.175-3.852 6.032-3.919 6.138l-.13.203-.046.072a2.306 2.306 0 0 1-3.772.175 11.166 11.166 0 0 1-1.006-1.593 2.32 2.32 0 0 1-.16-1.75c.034-.136.083-.268.145-.394.012-.023-6.37 10.13-6.37 10.13a2.316 2.316 0 0 0 1.315 3.45 5.61 5.61 0 0 0 1.802.263 2.236 2.236 0 0 0 1.452-.646l2.832-2.745a2.308 2.308 0 0 1 1.737-.648l3.6.198a2.311 2.311 0 0 0 2.084-1.078l2.268-3.611a2.311 2.311 0 0 0-.037-2.515l-1.809-2.703a2.312 2.312 0 0 1-.258-2.057l.394-1.109c-.04.076-.08.15-.122.22Z" fill="#00B0EB"/><path d="M32.857 26.41a2.441 2.441 0 0 0-.157-1.854 11.148 11.148 0 0 0-1.018-1.586 2.306 2.306 0 0 0-3.77.204l-.02.028-.052.084-.084.133c-.037.06-4.05 6.438-4.104 6.542a2.1 2.1 0 0 0-.146.395 2.318 2.318 0 0 0 .16 1.75c.291.558.628 1.091 1.008 1.593a2.308 2.308 0 0 0 3.771-.175l.047-.072.13-.203c.067-.105 3.814-5.962 3.919-6.138.11-.173.2-.358.269-.552l.047-.15ZM28.289 56.14h-.027a27.367 27.367 0 0 1-7.11-.936 1.372 1.372 0 0 1-.961-1.676 1.356 1.356 0 0 1 1.657-.971c2.092.561 4.248.845 6.414.844a1.374 1.374 0 0 1 1.367 1.37 1.353 1.353 0 0 1-1.34 1.37Zm6.787-.903a1.359 1.359 0 0 1-1.307-1.015 1.372 1.372 0 0 1 .957-1.676 24.63 24.63 0 0 0 5.995-2.52 1.348 1.348 0 0 1 1.851.499 1.38 1.38 0 0 1-.492 1.873 27.289 27.289 0 0 1-6.651 2.795 1.327 1.327 0 0 1-.353.046v-.002ZM15.17 52.606c-.237 0-.47-.063-.675-.183a27.676 27.676 0 0 1-5.718-4.43 1.38 1.38 0 0 1 .438-2.236 1.341 1.341 0 0 1 1.476.297 25.01 25.01 0 0 0 5.156 3.997 1.38 1.38 0 0 1 0 2.372c-.205.12-.439.184-.677.185v-.002Zm31.656-4.249a1.347 1.347 0 0 1-.957-.4 1.38 1.38 0 0 1 0-1.938 25.238 25.238 0 0 0 3.956-5.212 1.348 1.348 0 0 1 1.85-.501 1.38 1.38 0 0 1 .494 1.873 28.012 28.012 0 0 1-4.385 5.778 1.343 1.343 0 0 1-.958.402v-.002Zm-41.269-5.45a1.35 1.35 0 0 1-1.172-.682 27.967 27.967 0 0 1-2.77-6.725 1.372 1.372 0 0 1 .955-1.676 1.352 1.352 0 0 1 1.66.967 25.237 25.237 0 0 0 2.496 6.063 1.38 1.38 0 0 1-.493 1.873c-.205.12-.438.183-.676.182v-.002Zm48.06-6.445a1.351 1.351 0 0 1-1.173-.688 1.373 1.373 0 0 1-.136-1.035 25.55 25.55 0 0 0 .841-6.514 1.41 1.41 0 0 1 1.355-1.424 1.316 1.316 0 0 1 1.355 1.317v.107a28.32 28.32 0 0 1-.932 7.22 1.359 1.359 0 0 1-1.308 1.019l-.001-.002ZM2.022 29.62a1.34 1.34 0 0 1-1.355-1.343v-.053a28.3 28.3 0 0 1 .918-7.166 1.352 1.352 0 0 1 1.656-.974 1.372 1.372 0 0 1 .964 1.676 25.517 25.517 0 0 0-.828 6.465 1.385 1.385 0 0 1-1.354 1.396h-.001Zm51.567-6.998a1.357 1.357 0 0 1-1.306-1.012 25.22 25.22 0 0 0-2.509-6.057 1.38 1.38 0 0 1 .487-1.873 1.345 1.345 0 0 1 1.852.493 27.953 27.953 0 0 1 2.783 6.72 1.371 1.371 0 0 1-.952 1.68 1.333 1.333 0 0 1-.355.049ZM5.502 16.37c-.237 0-.47-.063-.674-.183a1.38 1.38 0 0 1-.5-1.873 27.998 27.998 0 0 1 4.375-5.78 1.345 1.345 0 0 1 1.915 0 1.38 1.38 0 0 1 0 1.937 25.21 25.21 0 0 0-3.943 5.22 1.351 1.351 0 0 1-1.174.682l.001-.003Zm41.251-5.62a1.34 1.34 0 0 1-.954-.394 25.04 25.04 0 0 0-5.164-3.986 1.38 1.38 0 0 1-.156-2.276 1.343 1.343 0 0 1 1.504-.103 27.69 27.69 0 0 1 5.725 4.418 1.38 1.38 0 0 1-.43 2.24c-.166.07-.343.108-.522.11l-.003-.009ZM15.081 6.63a1.35 1.35 0 0 1-1.17-.682 1.38 1.38 0 0 1 .492-1.873 27.271 27.271 0 0 1 6.646-2.808 1.35 1.35 0 0 1 1.66.965 1.371 1.371 0 0 1-.954 1.676 24.595 24.595 0 0 0-5.99 2.531 1.33 1.33 0 0 1-.685.198l.001-.007Zm19.894-2.71c-.118-.001-.234-.017-.348-.047a24.67 24.67 0 0 0-6.365-.83 1.396 1.396 0 0 1-1.306-1.888A1.33 1.33 0 0 1 28.182.3v1.37l.046-1.37c2.394-.001 4.779.31 7.093.928a1.372 1.372 0 0 1 .964 1.676 1.358 1.358 0 0 1-1.311 1.021V3.92Z" fill="#fff"/></svg>
