<svg xmlns="http://www.w3.org/2000/svg" width="218" height="26" fill="none"><path fill-rule="evenodd" clip-rule="evenodd" d="M82.33 3.31a8.669 8.669 0 0 0-6.44 2.727 9.464 9.464 0 0 0 0 13.194 8.666 8.666 0 0 0 6.44 2.727 8.84 8.84 0 0 0 4.272-1.084 9.101 9.101 0 0 0 3.286-3.007 1.407 1.407 0 0 1 .969-.657 1.51 1.51 0 0 1 1.807 1.199c.022.108.032.218.032.328.001.292-.084.578-.246.821a12.081 12.081 0 0 1-4.387 4.026 11.952 11.952 0 0 1-5.735 1.446 11.623 11.623 0 0 1-8.609-3.632 12.52 12.52 0 0 1 0-17.53A11.6 11.6 0 0 1 82.33.22a11.845 11.845 0 0 1 5.734 1.462 12.087 12.087 0 0 1 4.387 4.025 1.49 1.49 0 0 1 .23 1.15A1.51 1.51 0 0 1 91.2 8.09c-.116 0-.231-.01-.345-.033a1.406 1.406 0 0 1-.97-.657 9.11 9.11 0 0 0-3.285-3.007 8.845 8.845 0 0 0-4.27-1.084ZM48.765 6.496a1.449 1.449 0 0 1 1.084.46 1.546 1.546 0 0 1 0 2.169 1.449 1.449 0 0 1-1.084.46h-2.398v13.917a1.533 1.533 0 0 1-2.613 1.084 1.449 1.449 0 0 1-.46-1.084V9.585h-2.382a1.504 1.504 0 0 1-1.101-.459 1.548 1.548 0 0 1 .503-2.513c.19-.08.393-.119.598-.116h2.382V1.765A1.534 1.534 0 0 1 45.923.68a1.476 1.476 0 0 1 .444 1.085v4.732h2.398ZM20.707 23.503a1.48 1.48 0 0 0-.123-.591L11.86 1.192a1.518 1.518 0 0 0-.575-.706 1.52 1.52 0 0 0-1.709 0c-.26.17-.46.418-.575.707L.26 22.913a1.53 1.53 0 0 0 .016 1.183 1.442 1.442 0 0 0 .838.82 1.527 1.527 0 0 0 1.183-.016 1.438 1.438 0 0 0 .822-.838l2.727-6.77h9.168l2.728 6.77c.114.289.315.535.575.706.25.175.549.267.854.263.193.001.383-.038.56-.115a1.5 1.5 0 0 0 .853-.821 1.48 1.48 0 0 0 .123-.592ZM10.43 5.874l3.352 8.347H7.078l3.352-8.347Zm26.692.732a1.479 1.479 0 0 0-.588-.11 1.48 1.48 0 0 0-1.083.444 1.502 1.502 0 0 0-.46 1.101v7.722a6.681 6.681 0 0 1-1.478 4.37 4.43 4.43 0 0 1-7.164 0 6.68 6.68 0 0 1-1.479-4.37V7.992a1.543 1.543 0 0 0-2.126-1.428c-.19.079-.36.196-.503.344a1.48 1.48 0 0 0-.444 1.084v7.771a9.627 9.627 0 0 0 2.382 6.556 7.394 7.394 0 0 0 5.75 2.711 7.306 7.306 0 0 0 5.06-2.02v.492a1.543 1.543 0 0 0 2.629 1.085 1.509 1.509 0 0 0 .444-1.085V8.042a1.529 1.529 0 0 0-.94-1.436Zm25.94.579a8.703 8.703 0 0 0-3.506-.688 8.669 8.669 0 0 0-6.44 2.727 9.343 9.343 0 0 0 0 13.095 9.004 9.004 0 0 0 12.88 0 9.342 9.342 0 0 0 0-13.095 8.703 8.703 0 0 0-2.934-2.039Zm-1.18 14.317a5.769 5.769 0 0 1-2.326.456 5.77 5.77 0 0 1-4.272-1.807 6.29 6.29 0 0 1 0-8.757 5.954 5.954 0 0 1 8.544 0 6.29 6.29 0 0 1 0 8.757 5.77 5.77 0 0 1-1.947 1.351Zm44.382-14.317a8.71 8.71 0 0 0-3.507-.688 8.67 8.67 0 0 0-6.441 2.727 9.343 9.343 0 0 0 0 13.095 9.006 9.006 0 0 0 12.882 0 9.344 9.344 0 0 0 0-13.095 8.713 8.713 0 0 0-2.934-2.039Zm-1.181 14.318a5.767 5.767 0 0 1-2.326.455 5.77 5.77 0 0 1-4.271-1.807 6.291 6.291 0 0 1 0-8.757 5.95 5.95 0 0 1 8.544 0 6.29 6.29 0 0 1 0 8.757 5.762 5.762 0 0 1-1.947 1.352ZM115.48.257c.336.002.667.09.96.254.311.168.568.422.739.73a1.936 1.936 0 0 1 .008 1.965c-.17.307-.424.56-.731.73a1.95 1.95 0 0 1-1.955 0 1.884 1.884 0 0 1-.732-.73 1.985 1.985 0 0 1-.262-.978c.002-.346.092-.685.262-.986.17-.311.427-.566.741-.73.297-.165.63-.253.97-.255Zm0 6.243a1.572 1.572 0 0 1 1.544 1.545v15.46a1.462 1.462 0 0 1-.46 1.085 1.544 1.544 0 0 1-2.169 0 1.449 1.449 0 0 1-.46-1.084V8.046A1.573 1.573 0 0 1 115.48 6.5Zm16.578.65a7.873 7.873 0 0 0-3.307-.703 7.868 7.868 0 0 0-5.454 2.152v-.608a1.54 1.54 0 0 0-2.126-1.428c-.189.079-.36.196-.503.344a1.489 1.489 0 0 0-.444 1.084v15.461a1.489 1.489 0 0 0 .444 1.084 1.533 1.533 0 0 0 1.101.444 1.51 1.51 0 0 0 1.085-.444 1.471 1.471 0 0 0 .443-1.084V15.73a6.438 6.438 0 0 1 1.594-4.386 5.016 5.016 0 0 1 3.853-1.807 5.01 5.01 0 0 1 3.853 1.807 6.443 6.443 0 0 1 1.593 4.386v7.772a1.514 1.514 0 0 0 .443 1.085 1.544 1.544 0 0 0 2.629-1.085V15.73a9.33 9.33 0 0 0-2.497-6.555 7.874 7.874 0 0 0-2.707-2.025Z" fill="#fff"/><path fill-rule="evenodd" clip-rule="evenodd" d="M148.226 3.995a8.662 8.662 0 0 1 3.507-.685 8.847 8.847 0 0 1 4.272 1.083 9.115 9.115 0 0 1 3.286 3.007 1.397 1.397 0 0 0 .969.657c.113.023.229.034.345.033a1.51 1.51 0 0 0 1.478-1.232c.022-.103.033-.208.034-.313a1.493 1.493 0 0 0-.263-.838 12.088 12.088 0 0 0-4.387-4.025A11.845 11.845 0 0 0 151.732.22a11.598 11.598 0 0 0-8.609 3.648 12.516 12.516 0 0 0 0 17.53 11.613 11.613 0 0 0 8.609 3.633 11.95 11.95 0 0 0 5.735-1.447 12.088 12.088 0 0 0 4.387-4.026 1.48 1.48 0 0 0 .246-.821c0-.11-.011-.22-.032-.328a1.513 1.513 0 0 0-1.808-1.2 1.41 1.41 0 0 0-.969.659 9.11 9.11 0 0 1-3.286 3.006 8.842 8.842 0 0 1-4.272 1.085 8.661 8.661 0 0 1-6.44-2.728 9.46 9.46 0 0 1 0-13.194 8.666 8.666 0 0 1 2.933-2.042Zm33.086 2.617a1.448 1.448 0 0 0-.591-.115v-.003a1.574 1.574 0 0 0-1.545 1.545v.788a8.965 8.965 0 0 0-12.471.395 9.344 9.344 0 0 0 0 13.095 8.983 8.983 0 0 0 12.471.377v.808a1.462 1.462 0 0 0 .46 1.085 1.536 1.536 0 0 0 2.613-1.085V8.042a1.48 1.48 0 0 0-.444-1.085 1.442 1.442 0 0 0-.493-.345Zm-5.844 14.89a5.775 5.775 0 0 1-2.326.456 5.774 5.774 0 0 1-4.272-1.807 6.29 6.29 0 0 1 0-8.758 5.954 5.954 0 0 1 8.544 0 6.333 6.333 0 0 1 0 8.758 5.768 5.768 0 0 1-1.946 1.351Zm18.067-15.005a1.544 1.544 0 0 1 0 3.089 4.95 4.95 0 0 0-3.844 1.807 6.441 6.441 0 0 0-1.595 4.387v7.722a1.48 1.48 0 0 1-.443 1.084 1.503 1.503 0 0 1-1.085.444 1.535 1.535 0 0 1-1.435-.94 1.48 1.48 0 0 1-.109-.588V8.042a1.48 1.48 0 0 1 .443-1.084 1.514 1.514 0 0 1 1.101-.46 1.54 1.54 0 0 1 1.528 1.545v.606a7.847 7.847 0 0 1 5.439-2.152Zm1.973 15.099a7.544 7.544 0 0 0 2.251 2.317 6.264 6.264 0 0 0 3.534 1.118 5.742 5.742 0 0 0 4.058-1.577 5.096 5.096 0 0 0 1.676-3.828 4.59 4.59 0 0 0-1.873-3.927 11.487 11.487 0 0 0-3.468-1.447 9.302 9.302 0 0 1-2.447-.92 1.669 1.669 0 0 1-.609-1.429 2.115 2.115 0 0 1 .199-.91c.134-.284.33-.535.573-.733a2.77 2.77 0 0 1 1.889-.69 2.909 2.909 0 0 1 1.496.394c.425.248.763.62.969 1.068a1.524 1.524 0 0 0 1.454.896c.202-.008.4-.056.583-.14a1.514 1.514 0 0 0 .901-1.454 1.533 1.533 0 0 0-.144-.584 5.359 5.359 0 0 0-2.103-2.366 5.916 5.916 0 0 0-3.155-.887 5.704 5.704 0 0 0-4.058 1.577 5.075 5.075 0 0 0-1.692 3.828 4.478 4.478 0 0 0 1.873 3.877 10.947 10.947 0 0 0 3.45 1.447 8.152 8.152 0 0 1 2.448.936 1.71 1.71 0 0 1 .641 1.463 2.092 2.092 0 0 1-.789 1.642 2.713 2.713 0 0 1-1.873.69 3.225 3.225 0 0 1-1.857-.64 4.353 4.353 0 0 1-1.314-1.331 1.472 1.472 0 0 0-.953-.69 1.498 1.498 0 0 0-1.84 1.15 1.468 1.468 0 0 0 .18 1.15Z" fill="#F15D0A"/><path fill-rule="evenodd" clip-rule="evenodd" d="M218.008.702a.307.307 0 0 0-.068-.197.324.324 0 0 0-.239-.112.29.29 0 0 0-.143.04.283.283 0 0 0-.136.153c-.733 1.802-1.221 3.047-1.466 3.734-.245-.687-.734-1.932-1.466-3.734a.285.285 0 0 0-.137-.153.287.287 0 0 0-.201-.033.317.317 0 0 0-.178.105.295.295 0 0 0-.068.197v4.312a.288.288 0 0 0 .088.214.298.298 0 0 0 .432 0 .3.3 0 0 0 .088-.214V2.128c.191.563.384 1.081.582 1.556l.578 1.43a.308.308 0 0 0 .452.136c.05-.033.09-.08.113-.136l.582-1.43a26.62 26.62 0 0 0 .579-1.588v2.918a.304.304 0 1 0 .608 0V.702Zm-4.843-.266a.3.3 0 0 0-.118-.023h-2.707a.299.299 0 0 0-.218.092.307.307 0 0 0 .099.496.3.3 0 0 0 .119.023h1.049v3.99a.288.288 0 0 0 .087.215.298.298 0 0 0 .215.091.312.312 0 0 0 .306-.305v-3.99h1.05a.3.3 0 0 0 .217-.092.307.307 0 0 0-.099-.497Z" fill="#fff"/></svg>
